Coordinates
version=1
nRows=29
nColumns=22
inDegrees=yes

Units are S.I. units (second, meters, Newtons, ...)
If the header above contains a line with 'inDegrees', this indicates whether rotational values are in degrees (yes) or radians (no).

endheader
time	pelvis_tilt	pelvis_list	pelvis_rotation	pelvis_tx	pelvis_ty	pelvis_tz	hip_flexion_r	hip_adduction_r	hip_rotation_r	knee_angle_r	ankle_angle_r	subtalar_angle_r	hip_flexion_l	hip_adduction_l	hip_rotation_l	knee_angle_l	ankle_angle_l	subtalar_angle_l	lumbar_extension	lumbar_bending	lumbar_rotation
      2.75000000	      9.51329364	      0.94375861	      8.79062972	      0.45051560	      0.94113792	     -0.09828110	      2.82683795	     -0.66268666	     -4.86432587	    -65.19157643	     -5.77884891	      6.86880348	      6.00641883	      3.80897482	     -1.22819656	    -26.33320197	     17.90019141	    -13.60121858	    -16.18582635	      0.60615981	    -11.12569470
      2.76000000	      9.35914475	      1.09019646	      8.57343684	      0.44169770	      0.93946284	     -0.09766539	      1.22205433	     -0.82121702	     -5.11352875	    -64.47694301	     -6.86385726	      7.80110389	      6.99461417	      3.98390641	     -1.59434675	    -26.76577314	     17.53993372	    -13.40565494	    -15.89876861	      0.38164844	    -10.65276486
      2.77000000	      9.20247886	      1.16883559	      8.32106949	      0.43278226	      0.93773867	     -0.09691755	     -0.36462653	     -0.89409248	     -5.33670897	    -63.52657409	     -7.84381431	      8.66484975	      8.03499334	      4.07767585	     -1.95279971	    -27.25437245	     17.17923730	    -13.23358822	    -15.59090122	      0.22845544	    -10.14769174
      2.78000000	      9.03804630	      1.17626158	      8.03132153	      0.42372347	      0.93595952	     -0.09603757	     -1.90837726	     -0.86760843	     -5.50090926	    -62.35583374	     -8.65847190	      9.48377060	      9.12644651	      4.09306662	     -2.27994165	    -27.78181726	     16.77851858	    -13.09362641	    -15.26317856	      0.15041541	     -9.60466607
      2.79000000	      8.87139269	      1.10974605	      7.69750644	      0.41449871	      0.93412944	     -0.09501283	     -3.39991078	     -0.73644397	     -5.58293241	    -60.97371350	     -9.32279692	     10.13553810	     10.25575920	      4.02031768	     -2.60246273	    -28.33587067	     16.42327584	    -13.01416269	    -14.92663944	      0.15250640	     -9.03559028
      2.80000000	      8.69940057	      0.97043946	      7.31313777	      0.40506590	      0.93225549	     -0.09383812	     -4.82377094	     -0.49557919	     -5.54501761	    -59.38691217	     -9.80737770	     10.54992735	     11.41617054	      3.86086497	     -2.92219582	    -28.89439338	     16.07860329	    -13.02661919	    -14.58992310	      0.23488294	     -8.43234247
      2.81000000	      8.50545448	      0.76764849	      6.87000630	      0.39536111	      0.93032300	     -0.09249112	     -6.14586315	     -0.15376806	     -5.34578384	    -57.61547476	    -10.07056917	     10.99115531	     12.61395322	      3.62950024	     -3.20957084	    -29.43191029	     15.66269353	    -13.07723130	    -14.24664471	      0.38208249	     -7.78513773
      2.82000000	      8.32905369	      0.51783986	      6.34673971	      0.38538791	      0.92842538	     -0.09094238	     -7.41607400	      0.26742512	     -4.95741009	    -55.64708034	    -10.11749082	     11.09512532	     13.77444124	      3.32746665	     -3.50829009	    -29.89983626	     15.22766547	    -13.23523728	    -13.95055034	      0.57888713	     -7.09927148
      2.83000000	      8.13299249	      0.20898449	      5.74906471	      0.37503067	      0.92645759	     -0.08917831	     -8.56550882	      0.76051202	     -4.38710428	    -53.53270409	     -9.98601017	     11.23280306	     14.97674135	      2.93764579	     -3.81686454	    -30.35981396	     14.78022412	    -13.42696053	    -13.68279202	      0.83015869	     -6.33002953
      2.84000000	      7.94286208	     -0.11493240	      5.07801181	      0.36432445	      0.92453130	     -0.08721978	     -9.64731768	      1.27293095	     -3.62913145	    -51.26273719	     -9.61810140	     11.26575443	     16.13787332	      2.49463495	     -4.17744116	    -30.71923177	     14.23915883	    -13.66501744	    -13.47242597	      1.09648246	     -5.57205527
      2.85000000	      7.74489906	     -0.46673308	      4.31852706	      0.35320171	      0.92262947	     -0.08501833	    -10.62736879	      1.80458166	     -2.66661402	    -48.88628544	     -9.05321884	     11.23570389	     17.26880886	      1.98731728	     -4.53790513	    -30.96954444	     13.64153900	    -13.93545187	    -13.31743094	      1.37928722	     -4.75595901
      2.86000000	      7.56465522	     -0.81906152	      3.49751376	      0.34165013	      0.92079493	     -0.08263508	    -11.53543932	      2.29914991	     -1.58371182	    -46.45269977	     -8.23074881	     11.12941273	     18.34014269	      1.42950469	     -4.95124778	    -31.11260403	     12.94798782	    -14.21049355	    -13.25525516	      1.65709901	     -3.92586499
      2.87000000	      7.40025082	     -1.16981571	      2.62689759	      0.32964899	      0.91904566	     -0.08008117	    -12.35259115	      2.74505096	     -0.41463940	    -44.03635697	     -7.12824110	     10.96366880	     19.34224341	      0.82430970	     -5.39692534	    -31.12304505	     12.14908473	    -14.46138259	    -13.28573708	      1.92390481	     -3.09024835
      2.88000000	      7.25284057	     -1.51384157	      1.73577245	      0.31719750	      0.91739884	     -0.07740864	    -13.05865174	      3.13091270	      0.77141881	    -41.72418887	     -5.71769453	     10.75162033	     20.27008618	      0.18089310	     -5.86095209	    -30.99110268	     11.22823024	    -14.65584788	    -13.41134087	      2.17654502	     -2.26961586
      2.89000000	      7.12279734	     -1.85562720	      0.84354994	      0.30431600	      0.91589048	     -0.07463608	    -13.62785514	      3.46503470	      1.91125502	    -39.59947982	     -3.98436523	     10.48139310	     21.11473982	     -0.50080926	     -6.32651349	    -30.70013267	     10.16148027	    -14.75268375	    -13.62657583	      2.41461582	     -1.47864640
      2.90000000	      7.01319695	     -2.20278048	     -0.00656003	      0.29102985	      0.91455145	     -0.07186248	    -14.03905381	      3.76055388	      2.89367760	    -37.72696127	     -1.96312780	     10.01646977	     21.87459928	     -1.21779127	     -6.78258165	    -30.24305882	      8.88137966	    -14.60180155	    -13.92986511	      2.65826638	     -0.73259019
      2.91000000	      6.90533908	     -2.54370886	     -0.80300815	      0.27739563	      0.91338475	     -0.06911039	    -14.25233636	      4.03114831	      3.70505212	    -36.15773716	      0.33276128	      9.69783916	     22.55398129	     -1.94356739	     -7.20876189	    -29.59001374	      7.47651729	    -14.44538686	    -14.28533420	      2.89213770	     -0.07925473
      2.92000000	      6.81891147	     -2.90292088	     -1.48314211	      0.26343668	      0.91242253	     -0.06649049	    -14.28323612	      4.31716080	      4.20046364	    -34.88763061	      2.74898922	      9.12846371	     23.17020824	     -2.69059272	     -7.59922229	    -28.79772141	      5.77811235	    -13.90201584	    -14.71350106	      3.15287968	      0.48063196
      2.93000000	      6.72768782	     -3.24959868	     -2.07758769	      0.24922302	      0.91165895	     -0.06402875	    -14.09207059	      4.59946866	      4.42890119	    -33.93346724	      5.22516643	      8.58337180	     23.71492870	     -3.41314079	     -7.96404196	    -27.81237424	      3.91419960	    -13.25093960	    -15.16969767	      3.41377974	      0.94933176
      2.94000000	      6.62988372	     -3.57104446	     -2.57356070	      0.23481827	      0.91110021	     -0.06174725	    -13.69175055	      4.87910893	      4.37974526	    -33.25932867	      7.64462064	      7.98472000	     24.19508617	     -4.08889576	     -8.30989594	    -26.65091751	      1.84175160	    -12.38321161	    -15.63811069	      3.65586619	      1.32355727
      2.95000000	      6.55045480	     -3.87058100	     -2.96299742	      0.22028073	      0.91076245	     -0.05970145	    -13.12332335	      5.15891067	      4.05502823	    -32.83430466	      9.92930082	      7.32236869	     24.60532715	     -4.71707357	     -8.67903129	    -25.37980720	     -0.38547722	    -11.26076361	    -16.14305590	      3.89353535	      1.58760837
      2.96000000	      6.48321442	     -4.11735115	     -3.26042477	      0.20573569	      0.91064431	     -0.05789696	    -12.42026118	      5.40801202	      3.53401490	    -32.59404508	     12.01890050	      6.64822884	     24.93456634	     -5.25448602	     -9.06992959	    -24.01104028	     -2.69138822	     -9.91279322	    -16.65241260	      4.09045612	      1.75091155
      2.97000000	      6.44819185	     -4.30993769	     -3.46882423	      0.19129832	      0.91076417	     -0.05633275	    -11.64902206	      5.62357297	      2.88873328	    -32.47065494	     13.86434268	      5.96462900	     25.16981238	     -5.69519610	     -9.47984846	    -22.62298409	     -4.95481404	     -8.33090173	    -17.17271749	      4.24571170	      1.81233052
      2.98000000	      6.45988187	     -4.44753952	     -3.60137188	      0.17706209	      0.91112566	     -0.05499043	    -10.86091694	      5.80059688	      2.19486121	    -32.41876093	     15.44067163	      5.27844361	     25.30734716	     -6.03906342	     -9.89563677	    -21.31280259	     -7.03163216	     -6.57505118	    -17.70940727	      4.35800627	      1.77152003
      2.99000000	      6.53285300	     -4.54247589	     -3.65684384	      0.16313479	      0.91174218	     -0.05381722	    -10.11793266	      5.96410438	      1.53924928	    -32.37956952	     16.72860093	      4.57922795	     25.34927505	     -6.30275491	    -10.28485372	    -20.19463460	     -8.76699622	     -4.73309993	    -18.26239846	      4.43491221	      1.62025700
      3.00000000	      6.66776668	     -4.60394085	     -3.63729859	      0.14961351	      0.91261761	     -0.05279792	     -9.46553807	      6.11740129	      0.93731196	    -32.28834793	     17.73268449	      3.86965792	     25.31804072	     -6.50430836	    -10.63054288	    -19.38673363	    -10.03163456	     -2.99186860	    -18.81897767	      4.48677520	      1.38890642
      3.01000000	      6.86492144	     -4.63390544	     -3.53658885	      0.13653478	      0.91375648	     -0.05190178	     -8.92159623	      6.27568536	      0.43107312	    -32.13037212	     18.47106677	      3.14939321	     25.22983927	     -6.65213966	    -10.90259006	    -18.96995660	    -10.74683304	     -1.54758124	    -19.37229794	      4.51667215	      1.07365808
      3.02000000	      7.13818839	     -4.67029250	     -3.35296735	      0.12388986	      0.91518479	     -0.05107536	     -8.52889242	      6.49103365	      0.06301453	    -31.86535140	     18.94837744	      2.37350318	     25.10701486	     -6.80477655	    -11.08641925	    -19.04462289	    -10.89264049	     -0.49908638	    -19.94589652	      4.56292675	      0.64395108
      3.03000000	      7.45751086	     -4.69430471	     -3.08367344	      0.11173166	      0.91688490	     -0.05034545	     -8.27332616	      6.73629020	     -0.20407118	    -31.46444291	     19.19217367	      1.60061753	     24.95732864	     -6.94232559	    -11.16749004	    -19.57125223	    -10.49313577	     -0.01088540	    -20.49030294	      4.61345395	      0.13909530
